<svg width="1108" height="688" xmlns="http://www.w3.org/2000/svg" xmlns:xlink="http://www.w3.org/1999/xlink" overflow="hidden"><defs><clipPath id="clip0"><rect x="20" y="47" width="1108" height="688"/></clipPath></defs><g clip-path="url(#clip0)" transform="translate(-20 -47)"><rect x="424.5" y="363.5" width="299" height="105" stroke="#2F528F" stroke-width="1.33333" stroke-miterlimit="8" fill="#FFFFFF"/><text font-family="Calibri,Calibri_MSFontService,sans-serif" font-weight="400" font-size="24" transform="translate(516.982 394)">rivet<tspan font-size="24" x="44.3067" y="0">-</tspan><tspan font-size="24" x="51.64" y="0">mkdat</tspan><tspan font-size="24" x="51.8" y="29">/</tspan><tspan font-size="24" x="-18.8533" y="58">rivet</tspan><tspan font-size="24" x="25.4534" y="58">-</tspan><tspan font-size="24" x="32.7867" y="58">cmphistos</tspan></text><path d="M74.5001 142.5 182 142.5 203.5 164.001 203.5 310.5 74.5001 310.5Z" stroke="#000000" stroke-width="1.33333" stroke-miterlimit="8" fill="none" fill-rule="evenodd"/><text font-family="Calibri,Calibri_MSFontService,sans-serif" font-weight="400" font-size="24" transform="translate(85.6884 179)">file1.yoda</text><path d="M182.5 163.5 182.5 142.5 203.5 163.5Z" stroke="#000000" stroke-width="1.33333" stroke-miterlimit="8" fill="none" fill-rule="evenodd"/><path d="M74.5001 331.5 182 331.5 203.5 353 203.5 500.5 74.5001 500.5Z" stroke="#000000" stroke-width="1.33333" stroke-miterlimit="8" fill="none" fill-rule="evenodd"/><text font-family="Calibri,Calibri_MSFontService,sans-serif" font-weight="400" font-size="24" transform="translate(85.6884 369)">file2.yoda</text><path d="M182.5 353.5 182.5 331.5 203.5 353.5Z" stroke="#000000" stroke-width="1.33333" stroke-miterlimit="8" fill="none" fill-rule="evenodd"/><path d="M356.5 98.5001 464 98.5001 485.5 120 485.5 267.5 356.5 267.5Z" stroke="#4472C4" stroke-width="1.33333" stroke-miterlimit="8" fill="none" fill-rule="evenodd"/><text font-family="Calibri,Calibri_MSFontService,sans-serif" font-weight="400" font-size="24" transform="translate(376.49 154)">ID1.plot<tspan font-size="16" x="15.1667" y="47">Title=…</tspan><tspan font-size="16" x="-6.34" y="67">X axis label=…</tspan><tspan font-size="16" x="26.9733" y="86">etc.</tspan></text><path d="M464.5 119.5 464.5 98.5001 485.5 119.5Z" stroke="#4472C4" stroke-width="1.33333" stroke-miterlimit="8" fill="none" fill-rule="evenodd"/><path d="M529.5 98.5001 636.166 98.5001 657.5 119.834 657.5 267.5 529.5 267.5Z" stroke="#4472C4" stroke-width="1.33333" stroke-miterlimit="8" fill="none" fill-rule="evenodd"/><text font-family="Calibri,Calibri_MSFontService,sans-serif" font-weight="400" font-size="24" transform="translate(548.592 195)">ID2.plot</text><path d="M636.5 119.5 636.5 98.5001 657.5 119.5Z" stroke="#4472C4" stroke-width="1.33333" stroke-miterlimit="8" fill="none" fill-rule="evenodd"/><rect x="339.5" y="50.5001" width="469" height="235" stroke="#404040" stroke-width="1.33333" stroke-miterlimit="8" fill="none"/><text font-family="Calibri,Calibri_MSFontService,sans-serif" font-weight="400" font-size="24" transform="translate(348.933 77)">Plot settings</text><rect x="90.5001" y="197.5" width="92" height="53" stroke="#2F528F" stroke-width="1.33333" stroke-miterlimit="8" fill="#4472C4"/><text fill="#FFFFFF" font-family="Calibri,Calibri_MSFontService,sans-serif" font-weight="400" font-size="16" transform="translate(102.834 219)">Histogram <tspan font-size="16" x="22.3333" y="19">ID1</tspan></text><rect x="90.5001" y="254.5" width="92" height="52" stroke="#2F528F" stroke-width="1.33333" stroke-miterlimit="8" fill="#4472C4"/><text fill="#FFFFFF" font-family="Calibri,Calibri_MSFontService,sans-serif" font-weight="400" font-size="16" transform="translate(102.834 276)">Histogram <tspan font-size="16" x="22.3333" y="19">ID2</tspan></text><rect x="90.5001" y="381.5" width="92" height="53" stroke="#2F528F" stroke-width="1.33333" stroke-miterlimit="8" fill="#ED7D31"/><text fill="#FFFFFF" font-family="Calibri,Calibri_MSFontService,sans-serif" font-weight="400" font-size="16" transform="translate(102.834 404)">Histogram <tspan font-size="16" x="22.3333" y="19">ID1</tspan></text><rect x="90.5001" y="438.5" width="92" height="53" stroke="#2F528F" stroke-width="1.33333" stroke-miterlimit="8" fill="#ED7D31"/><text fill="#FFFFFF" font-family="Calibri,Calibri_MSFontService,sans-serif" font-weight="400" font-size="16" transform="translate(102.834 460)">Histogram <tspan font-size="16" x="22.3333" y="19">ID2</tspan></text><text font-family="Calibri,Calibri_MSFontService,sans-serif" font-weight="400" font-size="48" transform="matrix(6.12323e-17 1 -1 6.12323e-17 132.116 534)">…</text><path d="M242 415 412.446 415 412.446 417 242 417ZM411.112 409.333 424.446 416 411.112 422.667Z"/><text font-family="Calibri,Calibri_MSFontService,sans-serif" font-weight="400" font-size="24" transform="translate(590.344 493)">Find based on ID <tspan font-size="24" x="0" y="29">and read</tspan></text><path d="M723 415 853.955 415 853.955 417 723 417ZM852.622 409.333 865.955 416 852.622 422.667Z"/><path d="M905.5 127.5 1013 127.5 1034.5 149.001 1034.5 406.5 905.5 406.5Z" stroke="#000000" stroke-width="1.33333" stroke-miterlimit="8" fill="none" fill-rule="evenodd"/><text font-family="Calibri,Calibri_MSFontService,sans-serif" font-weight="400" font-size="24" transform="translate(928.875 164)">ID1.dat</text><path d="M1013.5 148.5 1013.5 127.5 1034.5 148.5Z" stroke="#000000" stroke-width="1.33333" stroke-miterlimit="8" fill="none" fill-rule="evenodd"/><rect x="26.5001" y="94.5001" width="215" height="501" stroke="#404040" stroke-width="1.33333" stroke-miterlimit="8" fill="none"/><text font-family="Calibri,Calibri_MSFontService,sans-serif" font-weight="400" font-size="24" transform="translate(35.539 120)">Input files</text><rect x="867.5" y="94.5001" width="252" height="609" stroke="#404040" stroke-width="1.33333" stroke-miterlimit="8" fill="none"/><text font-family="Calibri,Calibri_MSFontService,sans-serif" font-weight="400" font-size="24" transform="translate(876.941 120)">Output files</text><rect x="922.5" y="237.5" width="92" height="52" stroke="#2F528F" stroke-width="1.33333" stroke-miterlimit="8" fill="#4472C4"/><text fill="#FFFFFF" font-family="Calibri,Calibri_MSFontService,sans-serif" font-weight="400" font-size="16" transform="translate(934.795 259)">Histogram <tspan font-size="16" x="22.3333" y="19">ID1</tspan></text><rect x="922.5" y="296.5" width="92" height="52" stroke="#2F528F" stroke-width="1.33333" stroke-miterlimit="8" fill="#ED7D31"/><text fill="#FFFFFF" font-family="Calibri,Calibri_MSFontService,sans-serif" font-weight="400" font-size="16" transform="translate(934.795 318)">Histogram <tspan font-size="16" x="22.3333" y="19">ID1</tspan></text><path d="M905.5 415.5 1013 415.5 1034.5 437.001 1034.5 694.5 905.5 694.5Z" stroke="#000000" stroke-width="1.33333" stroke-miterlimit="8" fill="none" fill-rule="evenodd"/><text font-family="Calibri,Calibri_MSFontService,sans-serif" font-weight="400" font-size="24" transform="translate(929 452)">ID2.dat</text><path d="M1013.5 436.5 1013.5 415.5 1034.5 436.5Z" stroke="#000000" stroke-width="1.33333" stroke-miterlimit="8" fill="none" fill-rule="evenodd"/><rect x="918.5" y="583.5" width="91" height="53" stroke="#2F528F" stroke-width="1.33333" stroke-miterlimit="8" fill="#ED7D31"/><text fill="#FFFFFF" font-family="Calibri,Calibri_MSFontService,sans-serif" font-weight="400" font-size="16" transform="translate(930.262 606)">Histogram <tspan font-size="16" x="22.3333" y="19">ID2</tspan></text><rect x="918.5" y="525.5" width="91" height="53" stroke="#2F528F" stroke-width="1.33333" stroke-miterlimit="8" fill="#4472C4"/><text fill="#FFFFFF" font-family="Calibri,Calibri_MSFontService,sans-serif" font-weight="400" font-size="16" transform="translate(930.262 547)">Histogram <tspan font-size="16" x="22.3333" y="19">ID2</tspan><tspan fill="#000000" font-size="48" x="-223.815" y="-353">…</tspan><tspan fill="#000000" font-size="48" x="134.413" y="-137">…</tspan></text><rect x="922.5" y="355.5" width="92" height="43" stroke="#4472C4" stroke-width="1.33333" stroke-miterlimit="8" fill="none"/><text font-family="Calibri,Calibri_MSFontService,sans-serif" font-weight="400" font-size="16" transform="translate(942.382 372)">ID1 plot <tspan font-size="16" x="0.486633" y="19">settings</tspan></text><rect x="917.5" y="641.5" width="94" height="44" stroke="#4472C4" stroke-width="1.33333" stroke-miterlimit="8" fill="none"/><text font-family="Calibri,Calibri_MSFontService,sans-serif" font-weight="400" font-size="16" transform="translate(938.325 659)">ID1 plot <tspan font-size="16" x="0.486633" y="19">settings</tspan></text><path d="M574 297 574 351.56 572 351.56 572 297ZM566.333 298.333 573 285 579.667 298.333ZM579.667 350.227 573 363.56 566.333 350.227Z"/><path d="M356.5 581.5 464 581.5 485.5 603 485.5 724.5 356.5 724.5Z" stroke="#4472C4" stroke-width="1.33333" stroke-miterlimit="8" fill="none" fill-rule="evenodd"/><text font-family="Calibri,Calibri_MSFontService,sans-serif" font-weight="400" font-size="24" transform="translate(372.667 609)">ID1.yoda</text><path d="M464.5 602.5 464.5 581.5 485.5 602.5Z" stroke="#4472C4" stroke-width="1.33333" stroke-miterlimit="8" fill="none" fill-rule="evenodd"/><path d="M529.5 581.5 636.166 581.5 657.5 602.834 657.5 724.5 529.5 724.5Z" stroke="#4472C4" stroke-width="1.33333" stroke-miterlimit="8" fill="none" fill-rule="evenodd"/><text font-family="Calibri,Calibri_MSFontService,sans-serif" font-weight="400" font-size="24" transform="translate(548.592 608)">ID2.plot</text><path d="M636.5 602.5 636.5 581.5 657.5 602.5Z" stroke="#4472C4" stroke-width="1.33333" stroke-miterlimit="8" fill="none" fill-rule="evenodd"/><rect x="339.5" y="533.5" width="469" height="200" stroke="#404040" stroke-width="1.33333" stroke-miterlimit="8" fill="none"/><text font-family="Calibri,Calibri_MSFontService,sans-serif" font-weight="400" font-size="24" transform="translate(348.933 560)">Reference histograms<tspan font-size="48" x="357.514" y="116">…</tspan></text><rect x="371.5" y="644.5" width="92" height="60" stroke="#2F528F" stroke-width="1.33333" stroke-miterlimit="8" fill="#70AD47"/><text fill="#FFFFFF" font-family="Calibri,Calibri_MSFontService,sans-serif" font-weight="400" font-size="16" transform="translate(384.646 660)">Reference <tspan font-size="16" x="0.0666809" y="19">histogram </tspan><tspan font-size="16" x="21.5667" y="38">ID1</tspan></text><rect x="542.5" y="643.5" width="91" height="60" stroke="#2F528F" stroke-width="1.33333" stroke-miterlimit="8" fill="#70AD47"/><text fill="#FFFFFF" font-family="Calibri,Calibri_MSFontService,sans-serif" font-weight="400" font-size="16" transform="translate(554.976 659)">Reference <tspan font-size="16" x="0.0666504" y="19">histogram </tspan><tspan font-size="16" x="21.5667" y="38">ID2</tspan></text><path d="M574 480 574 521.023 572 521.023 572 480ZM566.333 481.333 573 468 579.667 481.333ZM579.667 519.69 573 533.023 566.333 519.69Z"/><text font-family="Calibri,Calibri_MSFontService,sans-serif" font-weight="400" font-size="24" transform="translate(592.978 313)">Find based on ID <tspan font-size="24" x="0" y="29">and read</tspan></text><rect x="923.5" y="171.5" width="91" height="60" stroke="#2F528F" stroke-width="1.33333" stroke-miterlimit="8" fill="#70AD47"/><text fill="#FFFFFF" font-family="Calibri,Calibri_MSFontService,sans-serif" font-weight="400" font-size="16" transform="translate(936.146 187)">Reference <tspan font-size="16" x="0.0666504" y="19">histogram </tspan><tspan font-size="16" x="21.5667" y="38">ID1</tspan></text><rect x="918.5" y="461.5" width="91" height="60" stroke="#2F528F" stroke-width="1.33333" stroke-miterlimit="8" fill="#70AD47"/><text fill="#FFFFFF" font-family="Calibri,Calibri_MSFontService,sans-serif" font-weight="400" font-size="16" transform="translate(931.014 477)">Reference <tspan font-size="16" x="0.0666504" y="19">histogram </tspan><tspan font-size="16" x="21.5667" y="38">ID2</tspan></text></g></svg>