<svg width="1064" height="678" xmlns="http://www.w3.org/2000/svg" xmlns:xlink="http://www.w3.org/1999/xlink" overflow="hidden"><defs><clipPath id="clip0"><rect x="20" y="-3" width="1064" height="678"/></clipPath></defs><g clip-path="url(#clip0)" transform="translate(-20 3)"><rect x="424.5" y="321.5" width="299" height="189" stroke="#2F528F" stroke-width="1.33333" stroke-miterlimit="8" fill="#FFFFFF"/><text font-family="Calibri,Calibri_MSFontService,sans-serif" font-weight="400" font-size="24" transform="translate(516.982 394)">rivet<tspan font-size="24" x="44.3067" y="0">-</tspan><tspan font-size="24" x="51.64" y="0">mkdat</tspan><tspan font-size="24" x="51.8" y="29">/</tspan><tspan font-size="24" x="-18.8533" y="58">rivet</tspan><tspan font-size="24" x="25.4534" y="58">-</tspan><tspan font-size="24" x="32.7867" y="58">cmphistos</tspan></text><path d="M74.5001 142.5 182 142.5 203.5 164.001 203.5 310.5 74.5001 310.5Z" stroke="#000000" stroke-width="1.33333" stroke-miterlimit="8" fill="none" fill-rule="evenodd"/><text font-family="Calibri,Calibri_MSFontService,sans-serif" font-weight="400" font-size="24" transform="translate(85.6884 179)">f<tspan font-size="24" x="7.33334" y="0">ile1.yoda</tspan></text><path d="M182.5 163.5 182.5 142.5 203.5 163.5Z" stroke="#000000" stroke-width="1.33333" stroke-miterlimit="8" fill="none" fill-rule="evenodd"/><path d="M74.5001 331.5 182 331.5 203.5 353 203.5 500.5 74.5001 500.5Z" stroke="#000000" stroke-width="1.33333" stroke-miterlimit="8" fill="none" fill-rule="evenodd"/><text font-family="Calibri,Calibri_MSFontService,sans-serif" font-weight="400" font-size="24" transform="translate(85.6884 369)">f<tspan font-size="24" x="7.33334" y="0">ile2.yoda</tspan></text><path d="M182.5 353.5 182.5 331.5 203.5 353.5Z" stroke="#000000" stroke-width="1.33333" stroke-miterlimit="8" fill="none" fill-rule="evenodd"/><path d="M359.5 48.5001 467 48.5001 488.5 70.0005 488.5 216.5 359.5 216.5Z" stroke="#4472C4" stroke-width="1.33333" stroke-miterlimit="8" fill="none" fill-rule="evenodd"/><text font-family="Calibri,Calibri_MSFontService,sans-serif" font-weight="400" font-size="24" transform="translate(378.985 103)">ID1.plot<tspan font-size="16" x="15.1667" y="47">Title=…</tspan><tspan font-size="16" x="-6.34003" y="67">X axis label=…</tspan><tspan font-size="16" x="26.9733" y="86">etc</tspan><tspan font-size="16" x="46.86" y="86">.</tspan></text><path d="M467.5 69.5001 467.5 48.5001 488.5 69.5001Z" stroke="#4472C4" stroke-width="1.33333" stroke-miterlimit="8" fill="none" fill-rule="evenodd"/><path d="M531.5 48.5001 639 48.5001 660.5 70.0005 660.5 216.5 531.5 216.5Z" stroke="#4472C4" stroke-width="1.33333" stroke-miterlimit="8" fill="none" fill-rule="evenodd"/><text font-family="Calibri,Calibri_MSFontService,sans-serif" font-weight="400" font-size="24" transform="translate(551.087 145)">ID2.plot</text><path d="M639.5 69.5001 639.5 48.5001 660.5 69.5001Z" stroke="#4472C4" stroke-width="1.33333" stroke-miterlimit="8" fill="none" fill-rule="evenodd"/><rect x="342.5" y="0.500053" width="468" height="234" stroke="#404040" stroke-width="1.33333" stroke-miterlimit="8" fill="none"/><text font-family="Calibri,Calibri_MSFontService,sans-serif" font-weight="400" font-size="24" transform="translate(351.428 27)">Plot settings</text><rect x="90.5001" y="197.5" width="92" height="53" stroke="#2F528F" stroke-width="1.33333" stroke-miterlimit="8" fill="#4472C4"/><text fill="#FFFFFF" font-family="Calibri,Calibri_MSFontService,sans-serif" font-weight="400" font-size="16" transform="translate(102.834 219)">Histogram <tspan font-size="16" x="22.3333" y="19">ID1</tspan></text><rect x="90.5001" y="254.5" width="92" height="52" stroke="#2F528F" stroke-width="1.33333" stroke-miterlimit="8" fill="#4472C4"/><text fill="#FFFFFF" font-family="Calibri,Calibri_MSFontService,sans-serif" font-weight="400" font-size="16" transform="translate(102.834 276)">Histogram <tspan font-size="16" x="22.3333" y="19">ID2</tspan></text><rect x="90.5001" y="381.5" width="92" height="53" stroke="#2F528F" stroke-width="1.33333" stroke-miterlimit="8" fill="#ED7D31"/><text fill="#FFFFFF" font-family="Calibri,Calibri_MSFontService,sans-serif" font-weight="400" font-size="16" transform="translate(102.834 404)">Histogram <tspan font-size="16" x="22.3333" y="19">ID1</tspan></text><rect x="90.5001" y="438.5" width="92" height="53" stroke="#2F528F" stroke-width="1.33333" stroke-miterlimit="8" fill="#ED7D31"/><text fill="#FFFFFF" font-family="Calibri,Calibri_MSFontService,sans-serif" font-weight="400" font-size="16" transform="translate(102.834 460)">Histogram <tspan font-size="16" x="22.3333" y="19">ID2</tspan></text><text font-family="Calibri,Calibri_MSFontService,sans-serif" font-weight="400" font-size="48" transform="matrix(6.12323e-17 1 -1 6.12323e-17 132.116 534)">…</text><path d="M242 415 412.446 415 412.446 417 242 417ZM411.112 409.333 424.446 416 411.112 422.667Z"/><text font-family="Calibri,Calibri_MSFontService,sans-serif" font-weight="400" font-size="24" transform="translate(608.342 270)">Find based on ID <tspan font-size="24" x="0" y="29">and rea</tspan>d</text><path d="M723 415 853.955 415 853.955 417 723 417ZM852.622 409.333 865.955 416 852.622 422.667Z"/><path d="M905.5 142.5 1013 142.5 1034.5 164 1034.5 360.5 905.5 360.5Z" stroke="#000000" stroke-width="1.33333" stroke-miterlimit="8" fill="none" fill-rule="evenodd"/><text font-family="Calibri,Calibri_MSFontService,sans-serif" font-weight="400" font-size="24" transform="translate(928.875 179)">ID1.dat</text><path d="M1013.5 163.5 1013.5 142.5 1034.5 163.5Z" stroke="#000000" stroke-width="1.33333" stroke-miterlimit="8" fill="none" fill-rule="evenodd"/><rect x="26.5001" y="94.5001" width="215" height="501" stroke="#404040" stroke-width="1.33333" stroke-miterlimit="8" fill="none"/><text font-family="Calibri,Calibri_MSFontService,sans-serif" font-weight="400" font-size="24" transform="translate(35.539 120)">Input files</text><rect x="867.5" y="94.5001" width="216" height="580" stroke="#404040" stroke-width="1.33333" stroke-miterlimit="8" fill="none"/><text font-family="Calibri,Calibri_MSFontService,sans-serif" font-weight="400" font-size="24" transform="translate(876.941 120)">Output files</text><rect x="922.5" y="192.5" width="92" height="53" stroke="#2F528F" stroke-width="1.33333" stroke-miterlimit="8" fill="#4472C4"/><text fill="#FFFFFF" font-family="Calibri,Calibri_MSFontService,sans-serif" font-weight="400" font-size="16" transform="translate(934.795 214)">Histogram <tspan font-size="16" x="22.3333" y="19">ID1</tspan></text><rect x="922.5" y="251.5" width="92" height="53" stroke="#2F528F" stroke-width="1.33333" stroke-miterlimit="8" fill="#ED7D31"/><text fill="#FFFFFF" font-family="Calibri,Calibri_MSFontService,sans-serif" font-weight="400" font-size="16" transform="translate(934.795 274)">Histogram <tspan font-size="16" x="22.3333" y="19">ID1</tspan></text><path d="M905.5 369.5 1013 369.5 1034.5 391 1034.5 591.5 905.5 591.5Z" stroke="#000000" stroke-width="1.33333" stroke-miterlimit="8" fill="none" fill-rule="evenodd"/><text font-family="Calibri,Calibri_MSFontService,sans-serif" font-weight="400" font-size="24" transform="translate(928.875 407)">ID2.dat</text><path d="M1013.5 391.5 1013.5 369.5 1034.5 391.5Z" stroke="#000000" stroke-width="1.33333" stroke-miterlimit="8" fill="none" fill-rule="evenodd"/><rect x="918.5" y="473.5" width="91" height="52" stroke="#2F528F" stroke-width="1.33333" stroke-miterlimit="8" fill="#ED7D31"/><text fill="#FFFFFF" font-family="Calibri,Calibri_MSFontService,sans-serif" font-weight="400" font-size="16" transform="translate(930.137 495)">Histogram <tspan font-size="16" x="22.3333" y="19">ID2</tspan></text><rect x="918.5" y="414.5" width="91" height="53" stroke="#2F528F" stroke-width="1.33333" stroke-miterlimit="8" fill="#4472C4"/><text fill="#FFFFFF" font-family="Calibri,Calibri_MSFontService,sans-serif" font-weight="400" font-size="16" transform="translate(930.137 436)">Histogram <tspan font-size="16" x="22.3333" y="19">ID2</tspan><tspan fill="#000000" font-size="48" x="-221.196" y="-293">…</tspan></text><text font-family="Calibri,Calibri_MSFontService,sans-serif" font-weight="400" font-size="48" transform="matrix(6.12323e-17 1 -1 6.12323e-17 966.506 607)">…</text><rect x="922.5" y="310.5" width="92" height="44" stroke="#4472C4" stroke-width="1.33333" stroke-miterlimit="8" fill="none"/><text font-family="Calibri,Calibri_MSFontService,sans-serif" font-weight="400" font-size="16" transform="translate(942.382 328)">ID1 plot <tspan font-size="16" x="0.486633" y="19">settings</tspan></text><rect x="917.5" y="539.5" width="94" height="43" stroke="#4472C4" stroke-width="1.33333" stroke-miterlimit="8" fill="none"/><text font-family="Calibri,Calibri_MSFontService,sans-serif" font-weight="400" font-size="16" transform="translate(938.2 556)">ID1 plot <tspan font-size="16" x="0.486633" y="19">settings</tspan></text><path d="M1.3451 11.9662 3.14908 74.5932 1.14991 74.6508-0.654067 12.0238ZM-6.27999 13.5198 0 0 7.04781 13.1359ZM8.77501 73.0972 2.49501 86.617-4.5528 73.4812Z" transform="matrix(-1 0 0 1 575.495 234)"/></g></svg>